<?xml version="1.0" encoding="UTF-8"?>
<svg id="Layer_1" xmlns="http://www.w3.org/2000/svg" version="1.1" viewBox="0 0 512 512">
  <!-- Generator: Adobe Illustrator 29.3.1, SVG Export Plug-In . SVG Version: 2.1.0 Build 151)  -->
  <defs>
    <style>
      .st0 {
        fill: #232323;
      }

      .st1 {
        fill: #fff;
      }

      .st2 {
        fill: #da291c;
      }
    </style>
  </defs>
  <path class="st0" d="M433.8,105.6l-177.9-54.4v409.6h0c32.7-14.8,61.3-33.9,85.2-56.9,23.9-23.3,43.7-51.6,58.8-83.6,14.5-31.1,24.5-66.6,30.2-105.3,4.7-33.9,6.3-70.7,4.1-109.4h-.3Z"/>
  <path class="st2" d="M78.2,105.6c-2.2,39-.9,75.8,4.1,110,5.7,38.7,15.7,74.2,30.5,105.3,14.8,31.7,34.6,60,58.8,83.3,23.6,22.9,52.2,42.1,84.9,56.6V51.2l-177.9,54.4h-.3Z"/>
  <g>
    <path class="st1" d="M206.8,250.2v44.3h-26.1v-42.8c0-12.6-7.9-17.6-14.1-17.6s-15.7,3.8-15.7,17.6v42.8h-26.1v-127h26.1v57.8c3.1-10.7,16.3-15.4,23.6-15.4,21.7,0,32.7,15.1,32.7,40.2h-.3Z"/>
    <path class="st1" d="M282.6,167.5h25.8v127h-25.8v-9.1c-6,7.9-17,11.3-25.5,11.3-20.4,0-39.9-16.7-39.9-43.4s19.5-43.1,39.9-43.1,19.5,3.5,25.5,11v-53.8h0ZM281.3,253c0-10.7-9.1-18.9-18.9-18.9s-18.9,8.5-18.9,18.9,8.8,19.2,18.9,19.2,18.9-8.5,18.9-19.2Z"/>
    <path class="st1" d="M319.7,267.8h24.5c0,4.1,3.1,8.8,10.4,8.8s10.1-2.8,10.1-6.6-1.9-3.8-8.2-5.3l-10.7-2.8c-24.2-6.6-24.8-20.1-24.8-27,0-12.3,13.8-24.5,33.6-24.5s34.3,7.2,33.9,27.7h-24.5c0-5.3-3.8-7.9-8.8-7.9s-8.2,2.2-8.2,5.7,2.8,5,6.9,6l14.1,3.8c20.7,5.7,22.3,18.5,22.3,24.2,0,18.2-18.9,26.7-35.5,26.7s-35.8-10.1-35.8-28.6h.6Z"/>
  </g>
  <path class="st2" d="M250.5,478.7h0c-72-30.5-124.8-80.5-156.9-149-29.5-62.9-40.9-139.9-33.9-228.2.3-5.7,4.4-10.7,10.1-12.6l182-56c1.3-.3,2.8-.6,4.1-.6V5c-4.1,0-8.2.6-12.3,1.9L61.6,62.8c-16.3,5-28,19.5-29.2,36.5-15.1,198,58.5,341.7,207.5,404.2h0c5,2.2,10.7,3.1,16,3.1h0v-27.3c-1.9,0-3.8-.3-5.7-1.3l.3.6Z"/>
  <path class="st0" d="M479.7,99.3c-1.3-17.3-12.9-31.4-29.2-36.5L268.4,6.9c-4.1-1.3-8.2-1.9-12.3-1.9v27.3h0c1.3,0,2.8,0,4.1.6l182,56c5.7,1.6,9.7,6.6,10.1,12.6,6.9,88-4.7,164.7-33.6,227.3-32.1,68.8-84.9,119.1-157.2,149.6-1.9.6-3.8,1.3-5.7,1.3v27.3c5.7,0,11-.9,16.3-3.1,149-62.9,222.6-206.5,207.5-404.2v-.3Z"/>
</svg>