<?xml version="1.0" encoding="UTF-8"?>
<svg id="Layer_1" xmlns="http://www.w3.org/2000/svg" version="1.1" viewBox="0 0 500 500">
  <!-- Generator: Adobe Illustrator 29.3.1, SVG Export Plug-In . SVG Version: 2.1.0 Build 151)  -->
  <defs>
    <style>
      .st0 {
        fill: #da291c;
      }

      .st1 {
        fill: #fff;
      }

      .st2 {
        fill: #232323;
      }
    </style>
  </defs>
  <path class="st2" d="M163.3,184.1l-69.8-21.4v160.8s0,0,0,0c12.9-5.8,24.1-13.3,33.4-22.4,9.4-9.2,17.2-20.2,23-32.8,5.7-12.2,9.6-26.1,11.8-41.3,1.9-13.3,2.4-27.7,1.6-42.9Z"/>
  <g>
    <g>
      <path class="st2" d="M257.3,121.8h15.8v69.3h-15.8v-27.3h-22.8v27.3h-15.8v-69.3h15.8v27.8h22.8v-27.8Z"/>
      <path class="st2" d="M328.6,171.9h-34.4c1.4,4.5,5.3,7.3,11,7.3s8.9-2,11.9-4.8l7.6,9.7c-4.6,5-12.7,8.1-20.5,8.1-14.9,0-25.3-10.3-25.3-24.5s11.8-24.8,25.2-24.8,24.7,9.5,24.7,23.7-.1,3-.2,5.3ZM314,163.2c-.2-4.6-4.3-7.7-9.7-7.7s-8.7,2.1-10.3,7.7h19.9Z"/>
      <path class="st2" d="M368.8,144.1h14.9v47h-14.9v-5.9c-3.2,4.4-8.9,7.1-14.9,7.1-13.2,0-22.4-10-22.4-24.6s9.3-24.7,22.6-24.7,11.5,2.5,14.7,6.8v-5.6ZM368.3,167.6c0-6.1-4.8-11-10.9-11s-10.8,4.9-10.8,11,4.4,10.9,10.9,10.9,10.8-5.1,10.8-10.9Z"/>
      <path class="st2" d="M391.8,191v-72.5h14.9v72.5h-14.9Z"/>
      <path class="st2" d="M444.3,144.1v11.3h-9.9v35.7h-14.9v-35.7h-8.5v-11.3h8.5v-16.8h14.9v16.8h9.9Z"/>
      <path class="st2" d="M495,165.8v25.2h-14.9v-24.3c0-7.1-4.4-10.1-8.1-10.1s-9,2.2-9,10.1v24.3h-14.9v-72.5h14.9v33.1c1.7-6,9.3-8.7,13.5-8.7,12.5,0,18.6,8.5,18.6,22.9Z"/>
    </g>
    <g>
      <path class="st2" d="M246.1,216.4c20,0,31.6,15.1,31.6,34.8s-11.6,34.5-31.6,34.5h-27.3v-69.3h27.3ZM246.1,271.9c10.4,0,15.7-10,15.7-20.7s-5.3-21-15.7-21h-11.6v41.7h11.6Z"/>
      <path class="st2" d="M318.9,238.7h14.9v47h-14.9v-5.9c-3.2,4.4-8.9,7.1-14.9,7.1-13.2,0-22.4-10-22.4-24.6s9.3-24.7,22.6-24.7,11.5,2.5,14.7,6.8v-5.6ZM318.4,262.2c0-6.1-4.8-11-10.9-11s-10.8,4.9-10.8,11,4.4,10.9,10.9,10.9,10.8-5.1,10.8-10.9Z"/>
      <path class="st2" d="M371.3,238.7v11.3h-9.9v35.7h-14.9v-35.7h-8.5v-11.3h8.5v-16.8h14.9v16.8h9.9Z"/>
      <path class="st2" d="M409.7,238.7h14.9v47h-14.9v-5.9c-3.2,4.4-8.9,7.1-14.9,7.1-13.2,0-22.4-10-22.4-24.6s9.3-24.7,22.6-24.7,11.5,2.5,14.7,6.8v-5.6ZM409.2,262.2c0-6.1-4.8-11-10.9-11s-10.8,4.9-10.8,11,4.4,10.9,10.9,10.9,10.8-5.1,10.8-10.9Z"/>
    </g>
    <g>
      <path class="st2" d="M215.1,360h15.8c0,4.4,4.4,7.8,9.9,7.8s9-2.6,9-7.1-1.5-5.2-7.6-7.2l-8.2-2.5c-15.3-4.1-18.2-13.5-18.2-20,0-12.5,10.7-21.2,24.4-21.2s23.4,7.9,23.4,21.4h-15.8c0-4.1-2.5-7.6-7.9-7.6s-8.1,3.3-8.1,7.1.4,4.5,6.8,6.3l7.2,2.3c9.9,3,19.9,8,19.9,20.6s-12.9,21.5-25.5,21.5-25-8.6-25-21.4Z"/>
      <path class="st2" d="M307.1,333.3h14.9v47h-14.9v-5.9c-3.2,4.4-8.9,7.1-14.9,7.1-13.2,0-22.4-10-22.4-24.6s9.3-24.7,22.6-24.7,11.5,2.5,14.7,6.8v-5.6ZM306.6,356.8c0-6.1-4.8-11-10.9-11s-10.8,4.9-10.8,11,4.4,10.9,10.9,10.9,10.8-5.1,10.8-10.9Z"/>
      <path class="st2" d="M359.8,321.5c-7.3,0-9.9,3.8-10,9.3v2.5h10.1v11.3h-10.1v35.7h-14.9v-35.7h-8.7v-11.3h8.7v-2.9c0-14.8,8.1-22.6,21.7-22.6h5.9v13.8h-2.8Z"/>
      <path class="st2" d="M410.4,361.1h-34.4c1.4,4.5,5.3,7.3,11,7.3s8.9-2,11.9-4.8l7.6,9.7c-4.6,5-12.7,8.1-20.5,8.1-14.9,0-25.3-10.3-25.3-24.5s11.8-24.8,25.2-24.8,24.7,9.5,24.7,23.7-.1,3-.2,5.3ZM395.9,352.4c-.2-4.6-4.3-7.7-9.7-7.7s-8.7,2.1-10.3,7.7h19.9Z"/>
    </g>
  </g>
  <path class="st0" d="M23.7,184.1c-.9,15.3-.3,29.8,1.6,43.2,2.2,15.2,6.2,29.1,11.9,41.3,5.8,12.5,13.6,23.5,23,32.7,9.3,9,20.5,16.5,33.2,22.2v-160.8l-69.8,21.4Z"/>
  <g>
    <path class="st1" d="M74.2,240.8v17.3h-10.2v-16.7c0-4.9-3-6.9-5.6-6.9s-6.2,1.5-6.2,6.9v16.7h-10.2v-49.8h10.2v22.7c1.2-4.1,6.4-6,9.3-6,8.6,0,12.8,5.9,12.8,15.8Z"/>
    <path class="st1" d="M103.9,208.4h10.2v49.8h-10.2v-3.6c-2.4,3.1-6.7,4.4-10,4.4-8,0-15.6-6.6-15.6-17s7.6-16.9,15.6-16.9,7.7,1.3,10,4.4v-21.1ZM103.5,242c0-4.1-3.5-7.5-7.4-7.5s-7.5,3.4-7.5,7.5,3.5,7.5,7.5,7.5,7.4-3.4,7.4-7.5Z"/>
    <path class="st1" d="M118.6,247.7h9.7c0,1.6,1.2,3.5,4.1,3.5s3.9-1.1,3.9-2.6-.8-1.5-3.2-2.1l-4.2-1.1c-9.5-2.6-9.7-7.9-9.7-10.6,0-4.8,5.4-9.7,13.2-9.7s13.5,2.8,13.3,10.9h-9.7c0-2.1-1.5-3.1-3.5-3.1s-3.2.8-3.2,2.2,1.1,1.9,2.8,2.3l5.6,1.5c8.1,2.2,8.8,7.3,8.8,9.5,0,7.1-7.4,10.5-13.9,10.5s-14-3.9-14-11.3Z"/>
  </g>
  <path class="st0" d="M91.3,330.5h0c-28.3-11.9-49-31.6-61.5-58.4-11.5-24.7-16-54.8-13.4-89.5.2-2.3,1.8-4.2,3.9-4.9l71.5-21.9c.5-.2,1.1-.2,1.6-.2v-10.7c-1.6,0-3.2.2-4.8.7l-71.5,21.9c-6.5,2-11,7.6-11.5,14.3C-.2,259.4,28.7,315.7,87.2,340.4h0c2,.9,4.2,1.3,6.4,1.3h0v-10.7c-.7,0-1.5-.1-2.2-.4Z"/>
  <path class="st2" d="M181.3,181.7c-.5-6.7-5-12.3-11.5-14.3l-71.5-21.9c-1.6-.5-3.2-.7-4.8-.7v10.7h0c.6,0,1.1,0,1.6.2l71.5,21.9c2.2.7,3.8,2.6,3.9,4.9,2.7,34.6-1.8,64.6-13.2,89.2-12.5,27-33.3,46.8-61.6,58.7-.7.3-1.4.4-2.2.4v10.7c2.2,0,4.3-.4,6.4-1.3,58.5-24.6,87.4-81,81.4-158.7Z"/>
</svg>